<svg xmlns="http://www.w3.org/2000/svg" xmlns:xlink="http://www.w3.org/1999/xlink" width="500" zoomAndPan="magnify" viewBox="0 0 375 374.999991" height="500" preserveAspectRatio="xMidYMid meet" version="1.0"><defs><g/></defs><rect x="-37.5" width="450" fill="#ffffff" y="-37.499999" height="449.999989" fill-opacity="1"/><rect x="-37.5" width="450" fill="#740000" y="-37.499999" height="449.999989" fill-opacity="1"/><g fill="#ffffff" fill-opacity="1"><g transform="translate(155.057193, 323.917697)"><g><path d="M 87.828125 -8.671875 L 5.421875 -8.671875 L 5.421875 -210.078125 L 119 -210.078125 L 119 -68.046875 Z M 105.71875 -196.796875 L 18.703125 -196.796875 L 18.703125 -21.953125 L 79.96875 -21.953125 L 105.71875 -71.296875 Z M 105.71875 -196.796875 "/></g></g></g><g fill="#f00000" fill-opacity="1"><g transform="translate(95.52038, 265.730533)"><g><path d="M 111.5625 -3.796875 L 78.984375 -100.4375 L 18.453125 -100.4375 L 18.453125 -4.078125 L 5.421875 -4.078125 L 5.421875 -212.8125 L 117.53125 -212.8125 L 117.53125 -100.4375 L 92.828125 -100.4375 L 125.40625 -3.796875 Z M 104.5 -199.5 L 18.453125 -199.5 L 18.453125 -113.453125 L 104.5 -113.453125 Z M 104.5 -199.5 "/></g></g></g></svg>